<?xml version="1.0" encoding="utf-8"?>
<!-- Generator: Adobe Illustrator 16.0.0, SVG Export Plug-In . SVG Version: 6.00 Build 0)  -->
<!DOCTYPE svg PUBLIC "-//W3C//DTD SVG 1.1//EN" "http://www.w3.org/Graphics/SVG/1.1/DTD/svg11.dtd">
<svg version="1.1" id="Layer_1" xmlns="http://www.w3.org/2000/svg" xmlns:xlink="http://www.w3.org/1999/xlink" x="0px" y="0px"
	 width="1692px" height="489px" viewBox="0 0 1692 489" enable-background="new 0 0 1692 489" xml:space="preserve">
<g>
	<path fill="#FFFFFF" d="M251.6,87.8c1.9,0.2,3.7,0.3,5.5,1.1c1.3,0.1,2.6,0.3,3.9,0.4c3,1.1,6.1,1.5,9.1,2.5c1.3,0.2,2.7,0.3,4,0.5
		c1.3,0.5,2.6,1,3.9,1.4c2.5,0.6,5,1.3,7.6,1.6l-0.1,0.4c3.8,0.6,7.5,1.9,11.2,3c3.5,0.9,7,1.7,10.3,3.1c1.2,0.1,2.3,0.2,3.5,0.4
		l-0.1,0.8c0.7,0.1,2.2,0.2,2.9,0.3c1.2,0.5,2.5,0.9,3.8,1.4c2.4,0.6,4.7,1.3,7,2.1c2.7,0.9,5.3,1.8,8.1,2.5
		c1.9,0.7,3.8,1.3,5.8,1.9c1.4,0.5,2.8,1,4.2,1.5c1,0.3,1.9,0.7,2.9,1c1.4,0.5,2.7,1,4.1,1.5c1.3,0.5,2.5,1.1,3.8,1.6
		c1.1,0.4,2.2,0.8,3.2,1.2c1.6,0.8,3.3,1.5,4.9,2.2c1.7,0.9,3.4,1.8,5.1,2.8c0.2,0,0.7,0,0.9-0.1c2.2,1.6,4.6,2.9,7,4.2
		c1.2,0.8,2.4,1.6,3.6,2.4c4.8,2.9,8.7,7,12.9,10.7c0,0.2-0.1,0.7-0.1,0.9l0.7-0.4c2.8,3.4,5.5,6.9,7.899,10.6
		c0.601,1.2,1.301,2.4,1.9,3.6l0.4-0.1c0.399,1.1,0.8,2.3,1.199,3.4c0.601,1.3,1.2,2.6,1.801,3.9c1.199,4.2,2.899,8.4,3.5,12.8
		c0.199,0,0.5,0,0.699,0.1c0.101,2.3,0.2,4.7,0.301,7l0.699-0.1c0.601,10.8,2,21.7,0.5,32.5c-0.199,2.2-0.3,4.5-0.399,6.7l-0.7-0.2
		c-0.1,1.9-0.3,3.7-0.5,5.6c-0.8,1.9-1.4,3.9-2,5.9c-0.5,1.4-1,2.8-1.5,4.1c-0.7,1.4-1.4,2.7-2.2,4l-0.1,0.8
		c-0.4,0.6-1.101,1.8-1.5,2.4l-0.2,0.2c-0.8,1.2-1.7,2.4-2.5,3.7c-0.3,0.301-0.9,1-1.1,1.4H397.1c-0.199,0.4-0.8,1.1-1,1.5
		c-1.2,1.2-2.399,2.3-3.6,3.4c-1.4,0.899-2.8,1.899-4.2,2.8c-0.5,0.3-1.5,1-2,1.3c-0.2,0-0.8,0-1,0.1c-8.5,4.7-18.7,3.2-28,2.7
		c-3.6-1.2-7.3-2.1-10.9-3.6c-1.2-0.5-2.5-0.9-3.7-1.4v-1c-0.5,0.101-1.4,0.4-1.8,0.5V254l-0.9,0.1c0.2-24.8,0-49.7,0.1-74.5
		c-0.1-9.8,0.2-19.7-0.3-29.5c-0.2,0-0.5,0-0.7,0c-0.6-8.1-8.7-14.7-16.8-13c-0.5,0.3-1.5,1-2.1,1.4c-3.5,3.5-4.9,8.4-4.5,13.2
		c-0.1,72.3,0,144.6,0,216.899c0.1,6.2-0.2,12.4,0.3,18.601c-0.6,0-2,0.1-2.6,0.2c0.6-0.4,1.2-0.9,1.7-1.4c-3.1,0.7-5.9-0.7-8.7-1.7
		c-2.7-0.899-5.3-1.8-8.1-2.5c-1.3-0.5-2.6-1-3.9-1.5c-0.6-0.1-1.9-0.2-2.6-0.2v-0.6c-2.4-0.5-4.7-1.2-7-2c-2-0.6-4-1.3-6.1-1.6
		l0.1-0.601c-0.6-0.1-2-0.2-2.6-0.3c-1.3-0.5-2.5-1-3.8-1.5c-1-0.3-2-0.5-3.1-0.8c-1.3-0.4-2.6-0.8-4-1.3c-3-1-6-1.9-9-2.9
		c-1.5-0.4-2.9-0.9-4.4-1.3C251.6,273.9,251.7,180.9,251.6,87.8z"/>
	<path fill="#FFFFFF" d="M835,158.8c12.2-0.2,25.1,0,35.9,6.2c0.399,0,1.1,0,1.5,0l-0.101,0.7c3.3,1.7,6.101,4.1,8.9,6.5
		c0.3,0.3,0.8,0.9,1,1.2c1.399,1.6,2.7,3.2,4.1,4.8c0.4,0.8,0.9,1.7,1.4,2.5c0.6,0.9,1.2,1.8,1.899,2.8c0,0.2,0,0.8,0,1
		c1,1.9,1.9,3.9,2.801,5.8c0,0.7,0.1,2.1,0.1,2.8l0.9-0.1c0.1,1.8,0.3,3.7,0.399,5.5c1.601,6,0.7,12.3,0.601,18.5h-0.7
		c-0.101,1.8-0.2,3.6-0.3,5.5c-0.9,2.4-1.601,4.8-2.7,7.1c-0.101,0.3-0.2,0.9-0.2,1.2c-1.2,2.2-2.4,4.5-3.6,6.7
		c-2.5,3.4-5.2,6.8-8.601,9.4c-1.399,1-2.8,2-4.2,3.1h-0.3c-2.899,1.8-6,3.3-9.3,4.4v0.399c-2.6,0.3-5,1.101-7.4,2
		c-3,0.2-6,0.4-8.899,1.2c-55.5,0.4-111-0.2-166.601,0.3c0,0.2,0,0.5,0,0.7c-2,0.2-4,0.9-5.6,2.2c-0.3,0-1-0.101-1.3-0.2v1.2
		l-0.8-0.101c-3.4,2.9-6,6.5-8.101,10.4c-0.6,1.7-1.199,3.4-1.6,5.1c-1.7,6.9-1.1,14-1.2,21c-0.1,14.801,0.101,29.7-0.1,44.5
		c-13.101,0.2-26.101,0-39.2,0.101c-0.2-17.5,0-35-0.1-52.5c0.1-4.4-0.2-8.8,0.699-13.101c0.2-1.3,0.5-2.699,0.7-4
		c0.4-1.3,0.8-2.699,1.3-4c0.801-2.6,1.9-5.199,3.2-7.6c1.601-3.1,3.5-5.9,5.601-8.7h0.8l-0.2-0.899c0.6-0.4,1.6-1.2,2.2-1.601
		L637.8,249.9l0.801,0.3c0.199-0.3,0.699-1,1-1.3c1.899-1.601,3.899-3.2,5.899-4.8c0.3,0,1,0.1,1.3,0.1l0.2-0.9
		c1.101-0.5,2.3-1,3.4-1.5c1.3-0.6,2.6-1.1,3.9-1.6c4.3-1.1,8.6-2.3,13.1-2.1c52.7-0.1,105.4,0,158,0c3.4-0.1,6.9,0.4,10.1-0.6
		c1.601-0.4,3.2-0.7,4.8-1.1c5.301-2.3,9.7-6.5,12-11.8c0.7-2,1.4-4,2.2-6c0.101-1.9,0.3-3.8,0.3-5.7c0.2,0,0.601,0.1,0.801,0.2
		c0-3.3,0-6.6-0.101-9.8h-0.7c-0.1-1.6-0.199-3.2-0.3-4.9c-0.399-1.2-0.899-2.5-1.3-3.7c-0.4-1-0.9-2.1-1.3-3.1
		c-0.1-0.5-0.4-1.4-0.5-1.9c-0.7-0.8-1.4-1.6-2.1-2.5l-0.2-0.1c-0.601-0.8-1.2-1.7-1.8-2.5c-0.301-0.2-1-0.6-1.301-0.8
		c-1.8-1.6-3.8-3.1-6.3-3.3c0-0.3,0-0.8-0.1-1.1c-1.5-0.1-3.101-0.3-4.601-0.5c-1.199-0.4-2.5-0.8-3.8-0.8
		c-69.2,0-138.399,0-207.6,0c0-6.4-0.101-12.9,0.1-19.3C694,158.7,764.5,158.8,835,158.8z"/>
	<path fill="#FFFFFF" d="M1077.5,158.8v-0.6c39.9,0.2,79.7,0,119.6,0.1c0.801,0.2,2.4,0.7,3.2,0.9c-0.1,6.3,0,12.6-0.1,18.9
		c-32.7,0.2-65.4,0-98.101,0.1c-5.3,0.2-10.8-0.6-16,0.7c-3.3,0.5-6.3,1.8-9.199,3.3c-3.601,2.6-6.4,6.2-8.2,10.2
		c-0.601,1.8-1.2,3.5-1.9,5.3c-0.2,1.3-0.3,2.7-0.399,4c-1,3.2-0.801,6.6-0.801,9.9c0,27,0,53.9,0,80.9c-0.1,4.6,0,9.3-1.1,13.8
		l-0.6-0.2c-0.101,1.5-0.301,2.9-0.4,4.4c-3,9-8.2,17.4-16,23l-0.1,0.7c-0.4,0-1.2-0.101-1.7-0.101l-0.101,0.9
		c-1.6,0.8-3.199,1.7-4.699,2.6c-1,0.4-1.9,0.801-2.801,1.2c-1.5,0.601-3.1,1.2-4.699,1.601l0.1,0.5
		c-14,3.399-28.4,2.199-42.7,2.399c-35.1-0.1-70.1,0.2-105.2-0.2c-0.1-6.3,0-12.6-0.1-18.899l1,0.2l-0.2-1.101
		c38.5-0.1,77,0,115.5,0c3.5,0.2,6.8-0.899,10.101-2.1c2.1-1.2,4.1-2.7,6-4.2c2.5-2.6,4.3-5.8,5.699-9.1
		c2.301-5.801,1.9-12,2.101-18.101c0.3-2.3,0.3-4.7,0.3-7c-1-6.3,0-12.7,0-19c-0.4-3.3-0.3-6.7,0-10c-0.7-3.3-0.2-6.7-0.3-10
		c0.3-2.3,0.3-4.7,0.3-7c-1-8,0.3-16-0.1-24c-0.4-2.3-0.4-4.7,0.1-7c0.2-2.7,0.2-5.4,0.9-8.1c0.199-1.5,0.399-3,0.6-4.4h0.6
		c0.301-1.5,0.601-3,1-4.5c1.101-2.8,2.4-5.5,3.801-8.2c1.3-2,2.699-3.9,4.199-5.6c0.301-0.3,0.9-0.8,1.2-1.1l-0.2-0.4
		c0.9-0.8,1.9-1.7,2.801-2.5c2.8-2.4,5.8-4.7,9.199-6.2l0.2-0.4c2.3-0.9,4.601-1.8,7-2.5c0-0.2,0-0.5,0-0.6c1,0,3-0.1,4-0.2
		l-0.2-0.7c1.601-0.2,3.101-0.4,4.7-0.6C1069.8,158.9,1073.7,158.8,1077.5,158.8z"/>
	<g>
		<path fill="#FFFFFF" d="M1425.1,159.5c2.301-0.4,4.601-0.7,6.9-1.2c1.3,0.5,2.8,0.8,4.2,1c1.6,0.7,3.1,1.5,4.6,2.5
			c0.2,0.2,0.7,0.8,1,1c0.9,1.1,1.8,2.3,2.601,3.4c0.399,1.6,0.899,3.2,1.399,4.8c0.101,0,0.4,0,0.601,0c0.5,44,0,88.1,0.199,132.1
			c13,0.2,26,0.101,39,0.101c-0.1,0.399-0.199,1.2-0.199,1.7h1c-0.101,6,0,12.1-0.101,18.1c-13.2,0.4-26.5-0.1-39.7,0.2
			c-0.199,6.6,0,13.2-0.199,19.7c-13,0.199-25.9,0-38.801,0.1c-0.199-0.4-0.699-1.1-1-1.4c0.101-6.1,0.2-12.3-0.1-18.399
			c-69.5-0.2-139,0-208.5-0.101c-3.5,0-7.1-0.1-10.2-1.899h-0.899c-1.9-1.5-3.301-3.4-4.5-5.5c0.1-1.8,0.199-3.5,0.399-5.3
			c1-1.4,2-2.801,3-4.101c1.7-1.6,3.5-3.2,5.3-4.7c3.301-1.899,6.601-4,10-6c1.301-0.899,2.601-1.799,3.9-2.699
			c0.3,0,1,0.1,1.3,0.199l0.101-0.799c2.6-1.5,5.199-3.201,7.899-4.701l0.101-0.699l1.199,0.199l0.101-1.199
			c0.3,0,1.1,0.1,1.399,0.1c0.5-0.4,1.4-1.2,1.801-1.6c1.1-0.601,2.3-1.2,3.5-1.801l0.1-0.899c0.4,0.101,1.3,0.2,1.7,0.2l0.1-0.801
			c1.9-1.1,3.9-2.299,5.8-3.5c1.101-0.699,2.301-1.399,3.5-2.1l0.101-0.3c1.8-1,3.5-2,5.3-3c0.4-0.3,1.3-0.899,1.8-1.2
			c1.4-0.8,2.801-1.699,4.2-2.5c2.4-1.4,4.7-2.9,7.1-4.3c1.7-1,3.4-2.101,5-3.3c0.2,0,0.7,0,0.9-0.1c1.6-1.4,3.4-2.5,5.4-3.4
			l0.1-0.301c3-1.699,5.9-3.5,8.8-5.399c2-1.2,4-2.399,5.9-3.8h0.9c0.5-0.4,1.399-1.301,1.899-1.7c1.301-0.8,2.601-1.5,3.9-2.3
			c2.4-1.5,4.7-3,7.2-4.4c1.199-0.7,2.3-1.4,3.5-2.1v-0.8c0.5,0.1,1.399,0.2,1.899,0.3l-0.1-0.9c1.6-0.9,3.2-1.8,4.9-2.6V233
			c2.3-1.3,4.6-2.7,6.8-4.2c0.3,0,1,0,1.3,0v-0.7c1.2-0.8,2.5-1.5,3.7-2.3h0.8c0.4-0.3,1.3-1,1.7-1.3l0.1-0.7c0.3,0,1,0.1,1.3,0.1
			c1-0.8,2.101-1.6,3.2-2.4c2-1.1,4-2.3,5.8-3.8c0.301,0,0.9,0.1,1.2,0.1l0.101-0.7c4.3-2.4,8.3-5.2,12.6-7.7
			c2.3-1.4,4.6-2.9,6.9-4.4c3.5-2,7-3.9,10.1-6.3c0.2,0,0.7,0,0.9,0c1.6-1.2,3.3-2.3,5-3.3c2.5-1.5,4.899-3,7.199-4.6l1.2,0.1
			c0-0.2,0.1-0.6,0.2-0.8c0.399-0.3,1.199-1,1.6-1.3l0.8,0.1c1.601-1.2,3.4-2.3,5.2-3.3c1-0.7,2.1-1.3,3.2-2
			c0.8-0.5,1.6-1,2.399-1.5c2.2-1.3,4.4-2.6,6.5-4.2c0.2,0,0.7,0.1,0.9,0.1c1.6-1.4,3.4-2.6,5.3-3.5l0.101-0.3
			c0.899-0.5,1.8-1,2.8-1.5c2-1.3,4.1-2.6,6.2-3.8c0.899-0.7,1.699-1.4,2.6-2c0.3,0,1,0.1,1.3,0.1l0.101-1l1.1,0.1l0.1-1.1
			c0.4,0,1.301,0.1,1.7,0.2l0.101-0.9c2.5-1.2,5-2.5,7.5-3.6C1423,160.2,1424.1,159.9,1425.1,159.5z M1394.7,200.2
			c-4.5,2.8-9.101,5.4-13.5,8.5c-1,0.5-2.101,1.1-3,1.6c-1.3,0.8-2.601,1.7-3.9,2.5c-1.5,0.9-3,1.8-4.5,2.6l-0.2,0.7l-0.8-0.1
			c-0.5,0.3-1.5,1-1.899,1.3c-1.301,0.9-2.601,1.8-3.9,2.8c-0.3,0-1-0.2-1.3-0.2l-0.101,0.8c-1.199,0.7-2.3,1.4-3.5,2.1
			c-1.5,0.9-3,1.8-4.399,2.6l-0.101,0.3c-1.8,1-3.5,2-5.199,3c-1.101,0.8-2.2,1.5-3.301,2.3c-0.3,0-1-0.1-1.399-0.2v1.2l-1.2-0.2
			v1.2c-0.5-0.1-1.3-0.1-1.8-0.2l-0.2,1.2c-0.3,0-1,0-1.3,0c-3.101,2.3-6.4,4.2-9.7,6.1l-0.2,0.3c-1.8,1-3.5,2-5.2,3.1
			c-6.3,3.9-12.6,7.8-19,11.7c-1.1,0.7-2.3,1.399-3.399,2l-0.101,0.3c-2.6,1.5-5.199,3-7.8,4.5c-1.3,0.9-2.6,1.8-3.8,2.7
			c-0.2,0-0.7,0.1-0.9,0.1c-0.6,0.4-1.8,1.101-2.399,1.4v0.399c-1.2,0.601-2.301,1.2-3.4,1.9c-2.8,1.9-5.8,3.6-8.7,5.4
			c-2.899,1.899-5.8,3.8-8.899,5.3v0.399c-1.101,0.5-2.101,0.9-3.101,1.4l-0.1,0.4c-2.1,1.199-4.1,2.399-6.2,3.6l-0.1,0.8
			c-0.3,0-0.9,0-1.3,0c-2.801,2.101-5.9,4-8.9,5.8c-0.5,0.301-1.4,0.9-1.9,1.2l-0.8-0.2v1.2c-0.4,0-1.3-0.1-1.7-0.1l-0.1,0.8
			c-1.1,0.5-2.1,1-3.1,1.5l-0.101,0.9c-0.399-0.101-1.3-0.2-1.7-0.2v0.899c-1,0.5-2.1,0.9-3.1,1.4v0.6c-1,0.5-2,1-3,1.5
			c0,0.5-0.1,1.4-0.1,1.801c2.5,0.1,5,0.199,7.6,0.199c56.3-0.1,112.5,0.101,168.8-0.1c0.2-26.2,0-52.5,0.101-78.7
			c-0.2-10.2,0.5-20.4-0.4-30.6C1402,194.9,1398.6,198.2,1394.7,200.2z"/>
	</g>
	<path fill="#FFFFFF" d="M236.5,257c0.8,0,2.3,0,3.1,0c-0.1,12.2,0.1,24.4-0.1,36.6c-2.2,0.5-4.4,1.301-6.5,2.2
		c-0.6,0.101-1.7,0.3-2.2,0.4c-1.1,0.5-2.2,1.1-3.3,1.6c-0.4,0.101-1.2,0.2-1.6,0.3c-4.2,1.7-8.6,3-12.8,4.801
		c-0.7,0.1-2,0.199-2.6,0.3v0.6c-1.5,0.5-3,1-4.5,1.5c-1.2,0.4-2.4,0.7-3.6,1l0.2,0.5c-1.2,0.3-2.3,0.601-3.5,0.9
		c-1.6,0.5-3.1,1.1-4.7,1.5l0.1,0.6c-0.6,0.101-1.9,0.2-2.6,0.3c-1.7,0.801-3.5,1.5-5.4,2v0.5c-4.7,1-9.1,3-13.7,4.601
		c-1.3,0.7-2.6,1.3-3.9,2c-1.1,0.7-2.1,1.5-3.2,2.2c-0.5,1.5-1,3-1.3,4.5l0.9-0.101c0.3,0.4,1,1.101,1.3,1.5l-0.1,0.5
		c1.2,0.5,2.4,1,3.6,1.5c1.5,0.4,3,0.7,4.6,1l-0.3,0.601c7.4,0.5,14.9,0.399,22.3,0l-0.3-0.7c4.4,0.1,8.5-1.3,12.5-2.9
		c0.6-0.1,1.7-0.3,2.2-0.5c1.2-0.5,2.4-1.1,3.6-1.6c1.5-0.5,3-1,4.5-1.4c1.3-0.5,2.5-1,3.8-1.5c1.4-0.5,2.7-0.899,4.1-1.399
		c2.2-0.801,4.4-1.601,6.5-2.601c0.5,0,1.4,0,1.9,0v-1c1.4-0.1,2.8-0.2,4.1-0.399c0,10.8-0.1,21.5,0.1,32.3c-2.7,0.6-5.4,1-8.1,1.2
		v0.6c-3.4,0.1-6.7,0.3-10.1,0.4l0.3,0.699c-4,0.101-8,0-11.9,0.7c-6.7,0.2-13.4,0.601-20-0.3c-3.9-0.2-7.8-0.3-11.6-0.4l0.2-0.699
		c-2.9-0.2-5.9-0.301-8.8-0.4c-0.3-1.2-1.1-2.7-1.8-0.9c-0.8,0-2.4,0-3.2-0.1l-0.5-0.4c-1.8-0.199-3.5-0.399-5.2-1
		c-1.7-0.3-3.5-0.5-5.1-1.1c-1.3-0.3-2.5-0.5-3.8-0.7c-1.3-0.5-2.7-0.899-4-1.399c-1.2-0.101-2.4-0.301-3.6-0.4l0.1-0.6
		c-3.2-0.7-6.4-1.801-9.5-2.9c-1.7-0.5-3.4-1.1-5.1-1.6c-1-0.5-2-1.101-3-1.601c-0.3,0-0.8,0-1.1,0c-0.5-0.3-1.5-1-2.1-1.3
		c-1.7-0.9-3.4-1.9-5.1-2.9c-1.7-1.399-3.3-2.899-5-4.3c-1.1-1.3-2.1-2.7-3.2-4c-2-4.5-2-9.8-0.2-14.3c2.2-2.9,4.8-5.4,7.9-7.5
		c1.7-1.1,3.5-2.1,5.3-3v-0.8c0.5,0.101,1.3,0.2,1.8,0.2l0.2-0.801c2.1-0.899,4.2-2,6.3-3c1.7-0.699,3.3-1.5,4.9-2.199
		c1.1-0.4,2.2-0.9,3.3-1.301c2.7-1.199,5.5-2.199,8.4-3.1l-0.1-0.699c0.7,0,2.1-0.101,2.8-0.201c1.1-0.6,2.1-1.1,3.2-1.6
		c0.4-0.1,1.3-0.3,1.8-0.4c1-0.399,2-0.699,3.1-1.1c3.2-1.2,6.4-2.3,9.6-3.5c1.1-0.4,2.1-0.7,3.2-1.1c1.6-0.601,3.3-1.2,4.9-2
		c0.6-0.101,1.7-0.4,2.3-0.5c3.1-1.4,6.4-2.4,9.7-3.601c2.7-0.899,5.4-1.8,8-3c0.5-0.1,1.6-0.3,2.2-0.399c1.6-0.801,3.3-1.4,5-2.101
		c1.2-0.3,2.4-0.6,3.6-0.899l-0.1-0.5c2.6-0.601,5.2-1.601,7.7-2.5c1.6-0.601,3.2-1.2,4.8-1.801c2.4-0.799,4.8-1.699,7.2-2.399
		c1.2-0.5,2.5-1,3.7-1.399c1.3-0.5,2.6-0.9,4-1.4c1.2-0.4,2.5-0.801,3.7-1.1L236.5,257z"/>
	<path fill="#FFFFFF" d="M389.6,272.8l-0.2-0.7c5.2,0.2,10.5-0.1,15.7,0.2c4.601,0.8,9.301,0.7,13.9,1.101c1.9,0.3,3.9,0.5,5.8,0.6
		l-0.3,0.7c2.8,0.1,5.6,0.2,8.4,0.5c3.6,1.2,7.5,1.2,11,2.5c1.5,0.2,3,0.399,4.399,0.6l-0.1,0.601c3.5,0.3,6.7,1.699,10.1,2.5v0.399
		c4.3,0.8,8.2,2.7,12.4,4c1.1,0.5,2.2,1,3.399,1.5c1.301,0.601,2.601,1.101,3.9,1.8c0.3,0,1-0.1,1.3-0.199l0.101,1.3
		c0.399,0,1.1-0.101,1.5-0.101c2,1.5,4.199,3,6.1,4.7c0.3,0,0.9,0.101,1.2,0.101v1.199h0.8c0.6,0.801,1.2,1.601,1.8,2.4
		c0.4,0.5,1.2,1.4,1.7,1.9c0,0.199,0,0.8,0,1c0.6,0.899,1.2,1.8,1.8,2.699c0.2,3.5,0.2,7.101-1.6,10.301c-0.5,0.8-1,1.6-1.5,2.399
		c-0.3,0.3-0.8,1-1.101,1.3h-0.3c-0.3,0.301-0.8,1-1.1,1.4c-4.7,4.2-10.2,7.4-15.8,10.3c-2.7,1.3-5.4,2.5-8.2,3.5c-1,0.4-2,0.7-3,1
		c-6.9,2.7-13.9,5-20.8,7.5c-1.7,0.601-3.301,1.2-5,1.7c-1,0.4-2,0.8-3,1.2c-0.601,0.2-1.7,0.399-2.301,0.6
		c-1.6,0.7-3.199,1.3-4.8,1.8c-1.1,0.4-2.1,0.7-3.2,1.101c-3.199,1.2-6.5,2.399-9.699,3.6c-1.4,0.5-2.7,0.9-4.101,1.4
		c-1.3,0.5-2.6,1-3.899,1.5c-1,0.3-2.101,0.7-3.101,1c-1.7,0.6-3.3,1.2-4.899,2c-0.601,0.1-1.7,0.3-2.2,0.399
		c-1.6,0.7-3.2,1.4-4.9,2c-1.2,0.4-2.4,0.7-3.6,1.101v0.399c-5.9,1.5-11.5,4-17.2,5.9c-1.1,0.4-2.1,0.8-3.2,1.2
		c-2.4,0.8-4.7,1.7-7.1,2.5c-2.7,1-5.4,2-8.1,2.899c-1,0.4-2,0.7-3.1,1.101c-2.2,0.8-4.5,1.6-6.7,2.5c-4.8,1.5-9.4,3.899-14.4,4.7
		c0.1-11.801,0-23.601,0.1-35.4c0.9-1.8,3.4-1.8,5.1-2.7c2.4-0.7,4.7-1.6,7.1-2.5c2.1-0.8,4.2-1.5,6.3-2.2
		c1.8-0.699,3.5-1.3,5.3-1.8l-0.1-0.7c1.3-0.1,2.6-0.199,4-0.3v-0.7c2.5-0.8,5-1.699,7.5-2.5c1.7-0.6,3.3-1.199,5-1.8
		c1-0.399,2-0.8,3-1.1c1-0.4,2.1-0.7,3.1-1c1.6-0.7,3.2-1.3,4.9-1.8c4.3-1.5,8.5-3,12.8-4.601c1.1-0.399,2.1-0.8,3.2-1.1
		c0.4-0.101,1.1-0.2,1.4-0.3c1.1-0.5,2.299-1.101,3.4-1.601c0.6-0.1,1.7-0.3,2.2-0.399c4.7-2,9.5-3.5,14.3-5.2
		c0.8-0.2,2.3-0.7,3.1-0.9l-0.1-0.5c1.2-0.3,2.399-0.6,3.6-0.899c2.5-1,5-1.9,7.601-2.601V309.4c1.7-0.4,3.3-1.2,4.7-2.2l0.899,0.1
		c0.3-0.399,0.8-1.2,1.101-1.6c0.399-0.2,1.1-0.601,1.5-0.8c1.399-2.7,0.199-5.4-2.4-6.7c-1.1-0.4-2.2-0.8-3.3-1.3
		c-2.101-0.9-4.4-0.801-6.601-0.9l0.2-0.7c-5.1,0-10.399-0.8-15.399,0.601c-2,0.1-4,0.199-6,0.399c-2.7,0.9-5.4,1.5-8.101,2.3
		c-2.7,0.9-5.4,1.9-8.1,2.801c-1.3,0.5-2.6,1-3.9,1.6c-0.5,0.1-1.5,0.2-2,0.3c-1.7,0.8-3.3,1.4-5.1,2c-2.7,1-5.4,2-8.3,2.4
		c0,0.2,0,0.7-0.1,0.899c-1.5,0.301-3,0.7-4.5,1.101c-1,0.399-1.9,0.7-2.9,1.1c-1.7,0.601-3.4,1.2-5.1,1.8c-1.3,0.4-2.6,0.9-3.9,1.4
		c-2.7,0.9-5.4,1.8-8.1,2.9c-0.5,0.1-1.5,0.3-2,0.399c-1.7,0.7-3.4,1.4-5.1,2c-1,0.3-2,0.601-3,0.9c-2.3,1-4.6,1.8-7.1,2.2
		c0-11.301,0.1-22.701,0-34c-0.1-1.5,0.2-2.9,0.7-4.301c2.3-0.3,4.4-1,6.5-1.899c0.7-0.101,2.1-0.4,2.8-0.5
		c3.6-1.4,7.4-2.3,11.2-3.101c1.6-0.5,3.3-0.8,5-1c1.6-0.5,3.3-0.899,4.9-1.399c1.9-0.2,3.8-0.3,5.7-0.4l-0.1-0.7
		c3-0.1,6-0.3,9-0.399l-0.2-0.7C378,273.4,383.8,272.7,389.6,272.8z"/>
	<path fill="#FFFFFF" d="M1539.9,322.2c1.199-0.101,2.3-0.2,3.5-0.2c1.699,6.5,0.199,13.3,0.8,20c-0.3,0-0.8,0-1,0l0.399,1.4
		l-1.199-0.7c-0.101,0.5-0.4,1.5-0.5,2c-1.101-4.8-0.601-9.8-0.5-14.7c-0.4,0-1.301,0-1.7,0c-0.8,2.8-1.6,5.7-2.6,8.4
		c-0.5,1.399-0.801,2.899-1.101,4.399c-1.1,0.101-2.199,0.2-3.199,0.3c-1.7-5.199-3.5-10.399-5.101-15.6c-0.5,5.1-0.3,10.2-0.2,15.4
		c-0.699,0-2.199,0.1-2.899,0.199c-0.101-6.8,0-13.5,0-20.3c1.3,0,2.6,0,4-0.1c0.399,1.5,0.899,3,1.2,4.5l0.5-0.101
		c0.8,3.2,1.8,6.301,2.899,9.4c0.3,1.1,0.601,2.2,1,3.3C1536,333.9,1538.3,328.2,1539.9,322.2z"/>
	<path fill="#FFFFFF" d="M1505.6,322.1c5.301,0.101,10.7,0.101,16,0c-0.1,0.9-0.1,1.801-0.1,2.801c-2.1,0-4.2-0.101-6.3-0.101
		c0,5.601-0.101,11.2,0,16.9c-0.5,0.899-1,1.899-1.5,2.8c0-0.4-0.101-1.2-0.101-1.6c-0.3,0.1-0.899,0.199-1.3,0.199
		c-0.1-6.1,0-12.199,0-18.399c-2,0-4.1,0.1-6,0.2l0.101-0.9l-1.2,0.2L1505.6,322.1z"/>
	<g>
		<path fill="#FFFFFF" d="M466,357.6c3.7-1.199,7.7-0.8,11.3,0.4c3.5,1.9,6.2,4.9,7.8,8.5c0.801,3,0.7,6.1,0.301,9.1
			c-0.5,1.101-0.9,2.301-1.301,3.5H483.9c-1.5,2.4-3.601,4.301-5.801,6c-0.199,0-0.699,0.101-0.899,0.101c-3.8,1.6-8.5,1.6-12.3,0
			c-0.2,0-0.7,0-0.9,0c-2.3-1.8-4.4-3.9-6.1-6.3c-0.4-1.101-0.801-2.101-1.301-3.2c-0.3-3.101-0.6-6.2,0.5-9.2
			c0.5-1.1,1-2.2,1.5-3.2c1.301-1.5,2.601-2.8,4.101-4C463.8,358.6,464.9,358.1,466,357.6z M469.8,359.2c-1.8,0.6-3.5,1.2-5.3,1.8
			c-4,2.9-6.4,7.7-5.8,12.7c0.5,1.2,1,2.5,1.5,3.7c0.7,0.899,1.3,1.899,2,2.8c0.3,0.3,0.8,0.8,1,1.1c1.6,1.101,3.3,1.9,5.2,2v0.601
			c1.5,0,3,0,4.399,0c1.8-0.7,3.601-1.4,5.4-2.101V381.4c4.399-3.5,6-9.801,3.7-14.9C479.7,361.8,475,359.1,469.8,359.2z"/>
	</g>
	<g>
		<path fill="#FFFFFF" d="M464.6,363.2c3.2-0.101,6.4-0.101,9.601,0c1.1,0.7,2.2,1.3,3.399,2.1c-0.3,2.101,0.9,5.4-1.8,6.3
			c3,1.2,1.101,5.4,2,7.9c-0.8-0.1-2.399-0.2-3.2-0.3c0-2-0.1-4-0.199-6c-2.301-0.101-4.601-0.101-6.9-0.2c0,2.5,0,4.9-0.2,7.4
			c-0.899-0.5-2.1-0.601-2.7-1.5C464.5,373.6,464.7,368.4,464.6,363.2z M467.5,365.9c0,1.1,0,3.3,0,4.399c2.3,0,4.7-0.1,7-0.2
			c0-1.3,0-2.699,0-4C472.2,365.9,469.9,365.9,467.5,365.9z"/>
	</g>
</g>
</svg>
