<svg
  xmlns="http://www.w3.org/2000/svg"
  width="892"
  height="526"
  viewBox="0 0 891.9 525.9"
  fill="white"
>
  <path
    class="st0"
    d="M456.4 265.4c0-16.6 2.4-32.7 6.7-47.9 7.3-25.2 20.2-48.1 37.2-67.1 -13.5-28.5-32-54.1-54.3-75.8C398.7 28.6 334.2 0.4 263 0.4 118.1 0.4 0.5 117.9 0.5 262.9c0 145 117.5 262.5 262.5 262.5 71.1 0 135.6-28.3 182.9-74.2 21.5-20.9 39.4-45.4 52.7-72.5 -17.5-20.1-30.5-44.4-37.2-71.1C458.1 294 456.4 279.9 456.4 265.4zM430.4 307.5c-6.7 26.7-19.6 51-37.2 71.1 -31.6 36.3-78.2 59.3-130.2 59.3 -80.8 0-148.5-55.5-167.3-130.4 -3.4-13.5-5.2-27.6-5.2-42.1 0-16.6 2.4-32.7 6.7-47.9C118 145.5 184.4 92.9 263 92.9c51.1 0 97 22.2 128.6 57.5 17 19 29.9 41.9 37.2 67.1"
  />
  <path
    class="st0"
    d="M795 217.5h59 33.4c2.6 14.7 3.9 29.9 3.9 45.4 0 145-117.5 262.5-262.5 262.5 -71.1 0-135.6-28.3-182.9-74.2 -21.5-20.9-39.4-45.4-52.8-72.5 -10.9-22.1-18.8-46-23.1-71.1 -2.5-14.5-3.8-29.4-3.8-44.6 0-15.5 1.3-30.6 3.9-45.4 4.1-23.6 11.4-46.1 21.3-67.1 13.5-28.5 32-54.1 54.4-75.8 47.3-46 111.8-74.2 182.9-74.2 95.5 0 179 50.9 225 127.1H732.5c-28.8-21.7-64.7-34.6-103.6-34.6 -51.1 0-97 22.2-128.6 57.5 -17 19-29.9 41.9-37.2 67.1 -4.4 15.2-6.7 31.3-6.7 47.9 0 14.5 1.8 28.6 5.2 42.1 6.7 26.7 19.6 51 37.2 71.1 31.6 36.3 78.2 59.3 130.2 59.3 80.8 0 148.5-55.5 167.3-130.4 0-0.2 0.3-0.3 0.3-0.5"
  />
  <path
    class="st0"
    d="M429 217.5h34.1c-4.4 15.2-6.7 31.3-6.7 47.9 0 14.5 1.8 28.6 5.2 42.1h-31.2 -60.2H95.7 50.5v-90h46.8H370"/>
  <polyline
    class="st0"
    points="854 217.5 794.6 217.5 560.5 217.5 560.5 307.5 796 307.5 "
  />
</svg>
